<svg xmlns="http://www.w3.org/2000/svg" xmlns:xlink="http://www.w3.org/1999/xlink" width="940" zoomAndPan="magnify" viewBox="0 0 705 591.000005" height="788" preserveAspectRatio="xMidYMid meet" version="1.0"><defs><clipPath id="id1"><path d="M 0.59375 0 L 704.402344 0 L 704.402344 590 L 0.59375 590 Z M 0.59375 0 " clip-rule="nonzero"/></clipPath><clipPath id="id2"><path d="M 31.964844 270 L 672.882812 270 L 672.882812 477.984375 L 31.964844 477.984375 Z M 31.964844 270 " clip-rule="nonzero"/></clipPath><clipPath id="id3"><path d="M 131.035156 40.257812 L 572 40.257812 L 572 530.867188 L 131.035156 530.867188 Z M 131.035156 40.257812 " clip-rule="nonzero"/></clipPath></defs><g clip-path="url(#id1)"><path fill="#ffffff" d="M 0.59375 0 L 704.40625 0 L 704.40625 597.488281 L 0.59375 597.488281 Z M 0.59375 0 " fill-opacity="1" fill-rule="nonzero"/><path fill="#ffffff" d="M 0.59375 0 L 704.40625 0 L 704.40625 590 L 0.59375 590 Z M 0.59375 0 " fill-opacity="1" fill-rule="nonzero"/><path fill="#ffffff" d="M 0.59375 0 L 704.40625 0 L 704.40625 590 L 0.59375 590 Z M 0.59375 0 " fill-opacity="1" fill-rule="nonzero"/><path fill="#ffffff" d="M 0.59375 0 L 704.40625 0 L 704.40625 590 L 0.59375 590 Z M 0.59375 0 " fill-opacity="1" fill-rule="nonzero"/></g><path fill="#3785bb" d="M 546.648438 470.046875 C 547.632812 475.148438 552.535156 465.335938 558.910156 449.140625 C 558.421875 452.871094 557.144531 453.449219 556.65625 458.464844 C 556.359375 461.59375 555.476562 469.9375 559.597656 472.203125 C 562.539062 473.863281 566.660156 471.714844 568.230469 470.820312 C 571.171875 472.785156 579.410156 477.789062 590.789062 477.40625 C 598.539062 477.113281 604.425781 474.460938 607.5625 472.695312 C 608.742188 473.765625 615.3125 479.457031 624.828125 478.671875 C 636.792969 477.789062 642.875 467.484375 643.269531 466.609375 C 648.367188 468.859375 654.351562 468.171875 658.765625 464.734375 C 665.4375 459.632812 664.847656 451.484375 664.847656 450.996094 C 663.671875 449.230469 660.042969 444.417969 653.371094 442.164062 C 643.660156 438.921875 635.324219 443.832031 634.046875 444.617188 C 631.695312 443.546875 626.984375 441.78125 620.902344 442.074219 C 614.921875 442.359375 610.40625 444.417969 608.152344 445.597656 C 606.191406 444.722656 602.464844 443.25 597.65625 443.4375 C 594.320312 443.546875 591.574219 444.417969 589.808594 445.105469 C 592.164062 442.949219 595.5 439.324219 597.558594 434.113281 C 601.875 422.828125 595.597656 416.066406 598.636719 404.867188 C 601.382812 394.671875 607.859375 396.230469 612.46875 385.640625 C 618.550781 371.605469 615.410156 349.523438 602.265625 343.035156 C 600.109375 341.964844 597.851562 341.367188 595.695312 341.179688 L 605.40625 308.597656 C 606.09375 304.757812 607.367188 295.050781 601.875 285.730469 C 600.695312 283.765625 595.300781 274.628906 589.121094 275.226562 C 584.023438 275.71875 580.6875 282.589844 577.351562 291.617188 C 568.035156 316.535156 566.070312 337.058594 566.070312 337.058594 C 562.933594 369.828125 556.164062 367.570312 550.179688 405.464844 C 547.828125 420.480469 541.351562 442.949219 546.648438 470.046875 Z M 158.316406 471.519531 C 157.332031 476.621094 152.429688 466.808594 146.054688 450.613281 C 146.542969 454.34375 147.820312 454.921875 148.308594 459.9375 C 148.605469 463.066406 149.488281 471.410156 145.367188 473.675781 C 142.425781 475.335938 138.304688 473.1875 136.734375 472.292969 C 133.792969 474.257812 125.550781 479.261719 114.167969 478.878906 C 106.421875 478.585938 100.535156 475.933594 97.398438 474.167969 C 96.222656 475.238281 89.648438 480.929688 80.132812 480.144531 C 68.167969 479.261719 62.085938 468.957031 61.691406 468.082031 C 56.589844 470.332031 50.609375 469.644531 46.195312 466.207031 C 39.527344 461.105469 40.113281 452.957031 40.113281 452.46875 C 41.292969 450.699219 44.921875 445.890625 51.589844 443.632812 C 61.300781 440.394531 69.636719 445.304688 70.914062 446.089844 C 73.265625 445.019531 77.976562 443.25 84.054688 443.546875 C 90.042969 443.832031 94.550781 445.890625 96.808594 447.070312 C 98.769531 446.195312 102.496094 444.722656 107.304688 444.910156 C 110.640625 445.019531 113.386719 445.890625 115.148438 446.578125 C 112.796875 444.417969 109.464844 440.796875 107.402344 435.585938 C 103.089844 424.300781 109.363281 417.539062 106.320312 406.339844 C 103.578125 396.140625 97.101562 397.703125 92.492188 387.113281 C 86.414062 373.078125 89.550781 350.996094 102.691406 344.507812 C 104.851562 343.4375 107.105469 342.839844 109.265625 342.652344 L 99.554688 310.070312 C 98.871094 306.230469 97.59375 296.523438 103.089844 287.199219 C 104.265625 285.238281 109.660156 276.101562 115.839844 276.699219 C 120.9375 277.191406 124.273438 284.058594 127.609375 293.089844 C 136.929688 318.007812 138.894531 338.53125 138.894531 338.53125 C 142.03125 371.300781 148.800781 369.042969 154.78125 406.9375 C 157.234375 421.953125 163.710938 444.527344 158.3125 471.519531 " fill-opacity="1" fill-rule="nonzero"/><g clip-path="url(#id2)"><path fill="#0f0e0c" d="M 665.632812 461.105469 C 664.257812 462.085938 662.789062 462.882812 661.21875 463.371094 L 649.546875 450.015625 C 656.902344 448.945312 664.257812 447.960938 671.519531 447.070312 C 672.695312 451.78125 670.242188 457.667969 665.632812 461.105469 Z M 650.132812 462.578125 C 650.035156 462.476562 649.839844 462.476562 649.742188 462.578125 C 649.644531 462.683594 649.449219 462.773438 649.449219 462.882812 C 648.664062 464.734375 647.585938 466.40625 646.308594 467.875 C 645.328125 469.0625 644.152344 470.046875 642.972656 470.820312 L 625.21875 453.742188 C 632.871094 452.46875 640.523438 451.398438 648.269531 450.210938 L 660.042969 463.667969 C 656.804688 464.351562 653.273438 464.050781 650.132812 462.578125 Z M 628.554688 474.460938 C 621.394531 474.058594 616.195312 470.535156 613.742188 468.464844 C 613.644531 468.367188 613.546875 468.367188 613.351562 468.367188 C 613.253906 468.367188 613.15625 468.367188 613.058594 468.464844 C 612.074219 469.0625 610.800781 469.839844 609.132812 470.535156 L 598.734375 458.355469 C 603.738281 457.484375 608.839844 456.5 613.839844 455.707031 C 617.078125 455.117188 620.414062 454.625 623.648438 454.046875 L 641.796875 471.519531 C 636.597656 474.550781 630.613281 474.550781 628.554688 474.460938 Z M 595.105469 472.585938 C 591.085938 472.097656 587.355469 470.820312 583.726562 468.574219 C 582.453125 468.082031 578.429688 466.316406 576.960938 462.476562 C 583.824219 461.105469 590.691406 459.742188 597.558594 458.464844 L 608.054688 470.820312 C 604.71875 472.203125 600.207031 473.273438 595.105469 472.585938 Z M 567.445312 470.046875 L 579.3125 429.109375 L 605.996094 417.429688 C 606.289062 420.972656 606.09375 424.691406 604.328125 429.109375 C 602.5625 433.730469 599.519531 437.941406 595.5 441.671875 C 590.105469 442.566406 583.925781 444.722656 579.609375 450.015625 C 578.039062 451.886719 574.015625 456.796875 575.683594 462.28125 C 576.175781 463.949219 577.058594 465.226562 578.136719 466.316406 C 574.800781 469.75 570.582031 470.820312 567.445312 470.046875 Z M 566.464844 469.644531 C 566.070312 469.445312 565.582031 469.261719 565.289062 468.957031 C 562.933594 467.191406 562.539062 463.863281 562.441406 462.773438 C 561.953125 458.757812 563.324219 455.609375 564.503906 453.15625 C 564.699219 452.664062 564.894531 452.171875 565.089844 451.78125 C 567.050781 447.175781 566.269531 443.832031 565.285156 439.707031 C 564.601562 436.765625 563.816406 433.527344 563.71875 428.824219 C 563.621094 426.078125 563.816406 424.113281 564.207031 422.152344 L 576.664062 434.605469 Z M 562.148438 455.707031 L 557.144531 466.609375 C 556.164062 467.789062 554.496094 469.152344 553.515625 469.152344 C 557.242188 437.167969 562.933594 405.0625 570.386719 373.65625 C 577.84375 342.542969 587.257812 311.539062 598.34375 281.5 C 598.441406 281.203125 598.34375 280.910156 598.050781 280.820312 C 597.753906 280.714844 597.460938 280.820312 597.363281 281.117188 C 586.277344 311.136719 576.863281 342.25 569.40625 373.460938 C 561.953125 404.484375 556.359375 436.273438 552.632812 468.082031 C 552.535156 467.59375 552.4375 466.808594 552.535156 465.628906 C 554.300781 420.277344 555.28125 397.507812 560.089844 379.546875 C 561.070312 375.824219 561.757812 373.460938 562.640625 370.625 C 563.71875 366.886719 564.992188 362.773438 567.25 354.324219 C 568.71875 348.835938 569.996094 344.507812 570.976562 341.074219 C 573.035156 333.90625 574.3125 329.589844 575.097656 324.09375 C 575.78125 318.792969 583.824219 277.878906 593.832031 272.078125 C 595.007812 271.390625 596.183594 271.300781 597.363281 271.792969 C 608.742188 276.40625 611.585938 292.597656 608.644531 302.109375 C 605.996094 310.753906 601.1875 332.042969 600.402344 335.292969 C 590.988281 335.675781 581.277344 342.25 577.351562 349.816406 C 575.585938 353.144531 575.488281 355.5 575.195312 360.320312 C 574.996094 364.246094 574.703125 369.730469 573.332031 378.5625 C 572.449219 384.058594 571.664062 387.886719 570.683594 392.796875 C 568.132812 405.160156 566.070312 411.738281 564.796875 416.152344 C 563.226562 421.167969 562.441406 423.621094 562.640625 429.019531 C 562.835938 433.730469 563.621094 437.253906 564.304688 440.109375 C 565.285156 444.234375 565.972656 447.265625 564.109375 451.484375 C 563.914062 451.886719 563.71875 452.378906 563.523438 452.871094 C 563.03125 453.558594 562.539062 454.625 562.148438 455.707031 Z M 606.976562 337.148438 C 619.53125 341.367188 624.53125 360.703125 620.511719 374.550781 C 618.84375 380.242188 616.195312 382.785156 613.351562 385.53125 C 611.976562 386.90625 610.605469 388.183594 609.328125 389.949219 L 590.003906 391.726562 L 602.167969 349.816406 C 602.265625 349.523438 602.070312 349.21875 601.777344 349.121094 C 601.480469 349.03125 601.1875 349.21875 601.089844 349.523438 L 596.578125 365.03125 L 579.804688 347.648438 C 585.589844 339.894531 597.558594 334.007812 606.976562 337.148438 Z M 571.074219 396.035156 C 571.269531 395.050781 571.46875 393.984375 571.761719 392.894531 C 572.742188 387.984375 573.527344 384.167969 574.410156 378.664062 C 575.78125 369.730469 576.078125 364.246094 576.273438 360.320312 C 576.566406 355.707031 576.664062 353.339844 578.234375 350.308594 C 578.527344 349.710938 578.921875 349.121094 579.3125 348.542969 L 596.382812 366.207031 L 588.925781 392.214844 L 584.121094 408.988281 Z M 583.628906 410.175781 L 576.960938 433.4375 L 564.40625 420.863281 C 564.699219 419.5 565.1875 418.117188 565.777344 416.351562 C 566.953125 412.523438 568.71875 407.027344 570.78125 397.308594 Z M 605.699219 397.996094 C 604.230469 403.796875 604.816406 408.410156 605.40625 412.828125 C 605.601562 413.996094 605.699219 415.085938 605.796875 416.152344 L 579.609375 427.636719 L 589.710938 392.796875 L 608.542969 391.039062 C 607.464844 392.894531 606.484375 395.160156 605.699219 397.996094 Z M 582.160156 460.320312 C 580.292969 460.722656 578.527344 461.007812 576.664062 461.410156 C 575.585938 456.6875 579.117188 452.269531 580.492188 450.613281 C 584.023438 446.382812 588.925781 444.234375 593.535156 443.144531 Z M 604.425781 441.964844 C 608.25 441.964844 612.175781 442.359375 615.902344 443.339844 C 616.097656 443.339844 616.292969 443.339844 616.390625 443.25 C 617.371094 442.269531 619.039062 440.984375 621.296875 439.90625 L 611.191406 454.832031 C 606.679688 455.609375 602.070312 456.394531 597.460938 457.285156 L 597.363281 457.285156 C 592.652344 458.160156 588.042969 459.042969 583.433594 459.9375 L 594.8125 442.761719 C 598.933594 442.074219 602.464844 442.074219 604.425781 441.964844 Z M 623.257812 439.324219 C 624.53125 438.921875 625.808594 438.640625 627.378906 438.433594 C 632.476562 438.039062 636.402344 439.90625 638.363281 441.09375 C 638.558594 441.179688 638.757812 441.179688 638.855469 441.09375 C 641.109375 440.003906 643.464844 439.128906 645.820312 438.640625 L 638.167969 450.503906 C 630.027344 451.78125 621.886719 453.066406 613.742188 454.429688 C 613.449219 454.539062 613.15625 454.539062 612.859375 454.625 Z M 647.289062 438.433594 C 649.351562 438.039062 651.3125 437.941406 653.371094 438.039062 C 665.535156 438.640625 669.753906 442.652344 671.125 446.089844 C 663.574219 447.070312 656.019531 448.050781 648.46875 449.140625 L 648.171875 449.140625 C 645.328125 449.523438 642.484375 449.925781 639.539062 450.417969 Z M 672.300781 446 C 670.339844 440.394531 663.964844 437.363281 653.371094 436.871094 C 651.214844 436.765625 649.054688 436.960938 646.898438 437.363281 L 646.703125 437.363281 C 643.953125 437.855469 641.109375 438.726562 638.558594 440.003906 C 636.5 438.726562 632.378906 436.871094 627.179688 437.363281 C 625.515625 437.453125 624.042969 437.855469 622.769531 438.238281 L 622.667969 438.238281 C 619.53125 439.324219 617.273438 440.984375 615.902344 442.164062 C 612.175781 441.179688 608.25 440.796875 604.425781 440.796875 C 602.855469 440.796875 600.304688 440.796875 597.363281 441.179688 C 600.992188 437.65625 603.640625 433.625 605.308594 429.316406 C 607.171875 424.40625 607.269531 420.277344 606.976562 416.449219 C 606.878906 415.171875 606.679688 413.898438 606.484375 412.628906 C 605.894531 408.300781 605.308594 403.796875 606.679688 398.191406 C 607.464844 394.964844 608.644531 392.597656 610.015625 390.742188 C 611.292969 388.96875 612.664062 387.691406 614.039062 386.21875 C 616.882812 383.472656 619.726562 380.734375 621.492188 374.738281 C 625.121094 362.175781 621.394531 340.875 607.171875 336.078125 C 605.308594 335.378906 603.246094 335.097656 601.285156 335.097656 C 602.167969 331.0625 606.777344 310.648438 609.425781 302.21875 C 612.371094 292.492188 609.917969 275.609375 597.460938 270.515625 C 595.988281 269.917969 594.417969 270.023438 592.949219 270.898438 C 582.355469 276.984375 574.410156 318.117188 573.625 323.808594 C 572.9375 329.207031 571.664062 333.515625 569.601562 340.582031 C 568.621094 344.015625 567.347656 348.433594 565.875 353.832031 C 563.621094 362.175781 562.34375 366.394531 561.265625 370.132812 C 560.480469 372.96875 559.695312 375.421875 558.714844 379.054688 C 553.8125 397.015625 552.929688 419.882812 551.164062 465.335938 C 551.0625 467.101562 551.164062 469.152344 552.4375 469.839844 L 552.535156 469.839844 C 552.828125 469.9375 553.027344 470.046875 553.320312 470.046875 C 555.183594 470.046875 557.441406 467.59375 557.929688 467.101562 L 558.027344 466.992188 L 561.070312 460.320312 C 561.070312 461.105469 561.070312 461.898438 561.167969 462.773438 C 561.363281 463.949219 561.757812 467.679688 564.503906 469.75 C 565.089844 470.132812 565.679688 470.429688 566.464844 470.734375 C 566.464844 470.734375 566.5625 470.820312 566.660156 470.820312 L 566.757812 470.820312 C 567.640625 471.117188 568.523438 471.222656 569.601562 471.222656 C 572.644531 471.222656 576.175781 469.839844 579.019531 466.894531 C 580.785156 468.367188 582.648438 469.152344 583.335938 469.445312 C 586.964844 471.714844 590.886719 473.1875 595.105469 473.570312 C 603.445312 474.550781 610.015625 471.410156 613.449219 469.347656 C 616.097656 471.519531 621.394531 474.953125 628.554688 475.335938 L 629.828125 475.335938 C 632.773438 475.335938 638.265625 474.84375 643.171875 471.800781 C 643.269531 471.800781 643.367188 471.714844 643.367188 471.714844 C 644.738281 470.820312 646.015625 469.75 647.191406 468.464844 C 648.46875 467.101562 649.449219 465.421875 650.234375 463.667969 C 653.765625 465.136719 657.6875 465.335938 661.21875 464.351562 C 662.984375 463.863281 664.75 462.96875 666.320312 461.898438 C 671.519531 458.0625 674.167969 451.191406 672.300781 446 Z M 152.527344 469.554688 C 148.800781 437.855469 143.207031 406.042969 135.753906 374.933594 C 128.296875 343.722656 118.878906 312.71875 107.792969 282.589844 C 107.699219 282.292969 107.402344 282.183594 107.105469 282.292969 C 106.8125 282.382812 106.714844 282.675781 106.8125 282.96875 C 117.898438 313.011719 127.316406 344.015625 134.773438 375.128906 C 142.226562 406.449219 147.917969 438.640625 151.644531 470.625 C 150.664062 470.625 148.996094 469.261719 148.015625 468.082031 L 143.011719 457.179688 C 142.621094 456.011719 142.128906 455.027344 141.738281 454.136719 C 141.542969 453.644531 141.34375 453.253906 141.148438 452.761719 C 139.285156 448.453125 140.070312 445.507812 140.953125 441.378906 C 141.640625 438.53125 142.425781 435.097656 142.621094 430.296875 C 142.816406 424.898438 142.03125 422.445312 140.460938 417.429688 C 139.089844 413.121094 137.03125 406.535156 134.578125 394.070312 C 133.597656 389.164062 132.8125 385.347656 131.929688 379.839844 C 130.554688 371.007812 130.261719 365.519531 130.066406 361.59375 C 129.769531 356.777344 129.667969 354.429688 127.902344 351.082031 C 123.882812 343.4375 114.269531 336.949219 104.851562 336.566406 C 104.164062 333.328125 99.359375 312.03125 96.613281 303.394531 C 93.667969 293.875 96.613281 277.769531 107.894531 273.058594 C 109.070312 272.566406 110.246094 272.664062 111.425781 273.351562 C 121.429688 279.152344 129.472656 320.078125 130.164062 325.371094 C 130.949219 330.875 132.125 335.183594 134.28125 342.347656 C 135.265625 345.785156 136.539062 350.101562 138.011719 355.597656 C 140.265625 364.046875 141.542969 368.171875 142.621094 371.898438 C 143.40625 374.738281 144.191406 377.09375 145.171875 380.820312 C 149.976562 398.683594 150.957031 421.464844 152.722656 466.894531 C 152.722656 468.171875 152.625 468.957031 152.527344 469.554688 Z M 142.621094 464.351562 C 142.523438 465.421875 142.03125 468.769531 139.777344 470.535156 C 139.382812 470.820312 138.992188 471.027344 138.597656 471.222656 L 128.492188 436.183594 L 140.953125 423.710938 C 141.34375 425.675781 141.542969 427.636719 141.441406 430.386719 C 141.246094 434.996094 140.558594 438.34375 139.875 441.289062 C 138.894531 445.507812 138.109375 448.738281 140.070312 453.359375 C 140.265625 453.742188 140.460938 454.234375 140.660156 454.726562 C 141.738281 457.179688 143.207031 460.320312 142.621094 464.351562 Z M 126.921875 467.789062 C 128 466.699219 128.882812 465.421875 129.375 463.753906 C 130.949219 458.269531 126.921875 453.359375 125.449219 451.484375 C 121.136719 446.285156 114.953125 444.125 109.558594 443.144531 C 105.441406 439.414062 102.496094 435.203125 100.730469 430.582031 C 99.066406 426.164062 98.769531 422.445312 99.066406 418.902344 L 125.742188 430.582031 L 137.617188 471.519531 C 134.382812 472.292969 130.164062 471.3125 126.921875 467.789062 Z M 121.136719 470.132812 C 117.703125 472.292969 113.878906 473.675781 109.855469 474.167969 C 104.753906 474.746094 100.242188 473.765625 96.808594 472.390625 L 107.304688 460.023438 C 114.167969 461.300781 121.136719 462.578125 127.902344 464.046875 C 126.53125 467.789062 122.507812 469.644531 121.136719 470.132812 Z M 91.902344 469.9375 C 91.707031 469.839844 91.414062 469.839844 91.21875 469.9375 C 88.765625 472.007812 83.566406 475.53125 76.40625 475.933594 C 74.347656 476.023438 68.265625 476.023438 62.96875 472.882812 L 81.113281 455.410156 C 84.453125 455.902344 87.683594 456.5 90.921875 457.082031 C 95.925781 457.972656 101.027344 458.847656 106.03125 459.738281 L 95.828125 472.007812 C 94.261719 471.3125 92.882812 470.535156 91.902344 469.9375 Z M 58.75 469.445312 C 57.476562 467.972656 56.394531 466.316406 55.609375 464.441406 C 55.515625 464.351562 55.414062 464.15625 55.316406 464.15625 L 55.121094 464.15625 C 55.023438 464.15625 54.925781 464.15625 54.925781 464.246094 C 51.785156 465.71875 48.253906 466.011719 45.015625 465.335938 L 56.789062 451.886719 C 64.4375 452.957031 72.191406 454.136719 79.839844 455.410156 L 62.085938 472.5 C 60.910156 471.519531 59.730469 470.535156 58.75 469.445312 Z M 43.839844 464.84375 C 42.273438 464.351562 40.800781 463.558594 39.425781 462.578125 C 34.71875 459.140625 32.363281 453.253906 33.539062 448.542969 C 40.898438 449.433594 48.15625 450.417969 55.515625 451.484375 Z M 51.589844 439.511719 C 53.554688 439.414062 55.609375 439.621094 57.671875 439.90625 L 65.324219 451.886719 C 62.476562 451.484375 59.632812 450.996094 56.691406 450.613281 L 56.394531 450.613281 C 48.84375 449.523438 41.292969 448.542969 33.738281 447.558594 C 35.207031 444.125 39.425781 440.109375 51.589844 439.511719 Z M 66.203125 442.652344 C 66.398438 442.761719 66.597656 442.761719 66.695312 442.652344 C 68.558594 441.476562 72.480469 439.621094 77.679688 440.003906 C 79.152344 440.109375 80.527344 440.394531 81.800781 440.886719 L 92.199219 456.195312 C 91.902344 456.097656 91.609375 456.097656 91.316406 456.011719 C 83.269531 454.625 75.03125 453.359375 66.890625 452.085938 L 59.238281 440.199219 C 61.59375 440.796875 63.949219 441.582031 66.203125 442.652344 Z M 111.519531 444.617188 C 116.132812 445.707031 121.035156 447.855469 124.566406 452.085938 C 125.941406 453.742188 129.472656 458.160156 128.390625 462.878906 C 126.53125 462.476562 124.761719 462.195312 122.902344 461.792969 Z M 88.46875 444.8125 C 88.570312 444.910156 88.765625 445.019531 88.960938 444.910156 C 92.6875 443.929688 96.613281 443.4375 100.4375 443.546875 C 102.496094 443.546875 106.03125 443.632812 109.953125 444.320312 L 121.332031 461.496094 C 116.722656 460.613281 112.011719 459.738281 107.402344 458.847656 L 107.304688 458.847656 C 102.691406 457.972656 98.183594 457.179688 93.667969 456.394531 L 83.566406 441.476562 C 85.824219 442.566406 87.488281 443.929688 88.46875 444.8125 Z M 96.417969 392.597656 L 115.25 394.367188 L 125.253906 429.207031 L 99.066406 417.734375 C 99.164062 416.644531 99.359375 415.46875 99.457031 414.386719 C 100.046875 409.972656 100.636719 405.359375 99.164062 399.578125 C 98.574219 396.632812 97.59375 394.472656 96.417969 392.597656 Z M 134.28125 398.890625 C 136.441406 408.5 138.109375 414.101562 139.285156 417.921875 C 139.875 419.695312 140.265625 421.167969 140.660156 422.445312 L 128.101562 434.996094 L 121.332031 411.648438 Z M 121.035156 410.460938 L 108.679688 367.679688 L 125.742188 350.015625 C 126.140625 350.59375 126.429688 351.183594 126.824219 351.78125 C 128.390625 354.8125 128.589844 357.179688 128.785156 361.792969 C 128.980469 365.804688 129.277344 371.203125 130.652344 380.132812 C 131.535156 385.640625 132.320312 389.566406 133.300781 394.367188 C 133.5 395.453125 133.792969 396.523438 133.988281 397.507812 Z M 91.609375 387.003906 C 88.765625 384.257812 86.117188 381.714844 84.453125 376.023438 C 80.429688 362.28125 85.433594 342.949219 97.984375 338.617188 C 99.945312 337.933594 102.007812 337.636719 104.070312 337.746094 L 104.359375 337.746094 C 112.308594 337.933594 120.546875 342.839844 125.058594 349.03125 L 108.285156 366.394531 L 103.773438 350.886719 C 103.675781 350.59375 103.378906 350.398438 103.089844 350.503906 C 102.792969 350.59375 102.597656 350.886719 102.691406 351.183594 L 114.859375 393.089844 L 95.53125 391.324219 C 94.355469 389.761719 92.984375 388.378906 91.609375 387.003906 Z M 146.152344 380.734375 C 145.171875 377.003906 144.386719 374.550781 143.601562 371.792969 C 142.523438 368.0625 141.246094 363.941406 138.992188 355.5 C 137.519531 350.015625 136.246094 345.6875 135.265625 342.25 C 133.203125 335.183594 131.929688 330.875 131.242188 325.476562 C 130.457031 319.882812 122.507812 278.75 111.917969 272.566406 C 110.445312 271.683594 108.875 271.585938 107.402344 272.175781 C 94.945312 277.277344 92.492188 294.160156 95.4375 303.886719 C 97.984375 312.316406 102.691406 332.730469 103.578125 336.765625 C 101.617188 336.765625 99.554688 337.058594 97.695312 337.746094 C 83.46875 342.546875 79.742188 363.84375 83.371094 376.40625 C 85.136719 382.402344 87.980469 385.148438 90.828125 387.886719 C 92.296875 389.273438 93.667969 390.636719 94.847656 392.402344 C 96.222656 394.265625 97.296875 396.632812 98.183594 399.871094 C 99.554688 405.464844 98.964844 409.972656 98.378906 414.300781 C 98.183594 415.574219 98.082031 416.839844 97.890625 418.117188 C 97.496094 421.953125 97.59375 426.078125 99.554688 430.984375 C 101.222656 435.292969 103.871094 439.324219 107.503906 442.847656 C 104.558594 442.457031 102.109375 442.457031 100.4375 442.457031 C 96.613281 442.457031 92.6875 442.847656 88.960938 443.832031 C 87.589844 442.652344 85.332031 440.984375 82.195312 439.90625 L 82.09375 439.90625 C 80.722656 439.414062 79.347656 439.128906 77.679688 439.023438 C 72.480469 438.640625 68.363281 440.394531 66.304688 441.671875 C 63.652344 440.394531 60.910156 439.511719 58.0625 439.023438 L 57.96875 439.023438 C 55.804688 438.640625 53.648438 438.433594 51.492188 438.53125 C 40.898438 439.023438 34.523438 442.074219 32.558594 447.667969 C 30.699219 452.871094 33.34375 459.738281 38.640625 463.667969 C 40.210938 464.84375 41.878906 465.628906 43.746094 466.121094 C 47.273438 467.101562 51.195312 466.894531 54.730469 465.421875 C 55.515625 467.1875 56.589844 468.769531 57.769531 470.242188 C 58.949219 471.605469 60.21875 472.585938 61.59375 473.480469 C 61.691406 473.570312 61.691406 473.570312 61.789062 473.570312 C 66.695312 476.621094 72.191406 477.113281 75.132812 477.113281 L 76.40625 477.113281 C 83.566406 476.710938 88.867188 473.273438 91.511719 471.117188 C 92.589844 471.800781 93.964844 472.5 95.632812 473.1875 C 99.261719 474.660156 104.164062 475.933594 109.855469 475.238281 C 113.972656 474.746094 117.996094 473.371094 121.429688 471.113281 C 122.214844 470.820312 124.078125 470.046875 125.84375 468.464844 C 128.6875 471.519531 132.125 472.882812 135.164062 472.882812 C 136.246094 472.882812 137.226562 472.695312 138.109375 472.390625 C 138.894531 472.097656 139.578125 471.800781 140.167969 471.3125 C 142.816406 469.347656 143.308594 465.628906 143.503906 464.351562 C 143.601562 463.460938 143.601562 462.683594 143.601562 461.898438 L 146.640625 468.574219 L 146.738281 468.660156 C 147.230469 469.261719 149.488281 471.605469 151.351562 471.605469 C 151.644531 471.605469 151.9375 471.519531 152.136719 471.410156 L 152.234375 471.410156 C 153.507812 470.730469 153.605469 468.660156 153.507812 466.894531 C 151.9375 421.550781 151.054688 398.78125 146.152344 380.734375 " fill-opacity="1" fill-rule="nonzero"/></g><path fill="#ffffff" d="M 184.996094 201.214844 L 137.226562 201.214844 L 137.226562 473.273438 L 160.964844 473.273438 L 135.65625 496.632812 L 141.738281 503.796875 L 168.808594 483.875 C 170.773438 480.351562 172.734375 476.808594 174.597656 473.273438 L 175.675781 473.273438 L 174.597656 515.769531 L 184.898438 515.769531 L 194.707031 473.273438 L 504.175781 473.273438 L 515.949219 524.027344 L 526.246094 524.027344 L 525.070312 479.371094 C 527.425781 483.578125 529.777344 487.90625 532.035156 492.128906 L 559.109375 512.042969 L 565.1875 504.886719 L 537.722656 479.457031 C 537.820312 477.40625 537.921875 475.445312 538.019531 473.371094 L 560.675781 473.371094 L 560.675781 201.214844 L 184.996094 201.214844 " fill-opacity="1" fill-rule="nonzero"/><path fill="#3785bb" d="M 241.496094 485.75 L 241.496094 460.515625 L 397.359375 460.515625 L 397.359375 502.816406 L 397.457031 502.816406 L 370.679688 502.816406 L 370.679688 528.039062 L 241.199219 528.039062 M 241.296875 528.039062 L 214.714844 528.039062 L 214.714844 485.75 L 241.496094 485.75 " fill-opacity="1" fill-rule="nonzero"/><path fill="#3785bb" d="M 169.988281 376.40625 L 292.304688 376.40625 L 292.304688 385.53125 L 169.988281 385.53125 Z M 273.472656 278.171875 L 221.875 278.171875 L 221.875 271.300781 L 273.472656 271.300781 Z M 296.328125 267.265625 L 221.875 267.265625 L 221.875 260.398438 L 296.328125 260.398438 Z M 236.980469 435.78125 C 236.980469 439.90625 233.550781 443.339844 229.429688 443.339844 L 193.625 443.339844 C 193.625 441.964844 193.527344 440.601562 193.234375 439.21875 C 192.742188 437.453125 192.253906 435.78125 191.761719 434.113281 C 191.371094 432.257812 191.175781 430.386719 191.175781 428.421875 L 191.175781 428.226562 L 229.527344 428.226562 C 233.550781 428.226562 236.980469 431.660156 236.980469 435.78125 Z M 296.914062 443.4375 L 251.792969 443.4375 C 248.066406 443.4375 245.125 440.394531 245.125 436.765625 L 245.125 434.996094 C 245.125 431.277344 248.164062 428.332031 251.792969 428.332031 L 296.914062 428.332031 C 300.640625 428.332031 303.585938 431.367188 303.585938 434.996094 L 303.585938 436.765625 C 303.683594 440.394531 300.640625 443.4375 296.914062 443.4375 Z M 169.988281 344.507812 L 304.371094 344.507812 L 304.371094 366.503906 L 169.988281 366.503906 Z M 437.871094 391.910156 L 384.019531 352.851562 L 336.542969 415.46875 L 318.59375 296.21875 L 543.316406 262.753906 L 560.578125 355.707031 L 497.996094 310.941406 Z M 550.867188 254.703125 L 312.316406 289.65625 L 332.621094 428.53125 L 571.171875 393.582031 L 550.867188 254.703125 " fill-opacity="1" fill-rule="nonzero"/><path fill="#3785bb" d="M 541.84375 226.046875 L 524.875 226.046875 C 523.992188 226.046875 523.304688 225.371094 523.304688 224.476562 C 523.304688 223.59375 523.992188 222.914062 524.875 222.914062 L 541.84375 222.914062 C 542.726562 222.914062 543.414062 223.59375 543.414062 224.476562 C 543.414062 225.371094 542.726562 226.046875 541.84375 226.046875 Z M 541.84375 231.550781 L 524.875 231.550781 C 523.992188 231.550781 523.304688 230.855469 523.304688 229.972656 C 523.304688 229.097656 523.992188 228.402344 524.875 228.402344 L 541.84375 228.402344 C 542.726562 228.402344 543.414062 229.097656 543.414062 229.972656 C 543.414062 230.855469 542.726562 231.550781 541.84375 231.550781 Z M 541.84375 236.949219 L 524.875 236.949219 C 523.992188 236.949219 523.304688 236.253906 523.304688 235.371094 C 523.304688 234.496094 523.992188 233.800781 524.875 233.800781 L 541.84375 233.800781 C 542.726562 233.800781 543.414062 234.496094 543.414062 235.371094 C 543.414062 236.253906 542.726562 236.949219 541.84375 236.949219 Z M 513.398438 231.640625 C 513.398438 234.878906 510.75 237.53125 507.511719 237.53125 L 193.921875 237.53125 C 190.683594 237.53125 188.035156 234.878906 188.035156 231.640625 L 188.035156 226.15625 C 188.035156 222.914062 190.683594 220.265625 193.921875 220.265625 L 507.609375 220.265625 C 510.847656 220.265625 513.496094 222.914062 513.496094 226.15625 Z M 137.226562 215.9375 L 137.226562 243.035156 L 560.675781 243.035156 L 560.675781 215.9375 L 137.226562 215.9375 " fill-opacity="1" fill-rule="nonzero"/><path fill="#3785bb" d="M 200.589844 398.105469 L 234.136719 403.101562 L 234.136719 398.976562 L 209.8125 390.253906 L 189.800781 371.410156 L 163.414062 367.277344 C 161.0625 367.277344 153.800781 366.886719 147.035156 361.488281 C 138.304688 354.429688 137.421875 344.3125 137.324219 342.652344 L 134.085938 342.652344 C 133.597656 346.273438 133.105469 353.832031 136.441406 362.371094 C 139.089844 369.242188 143.109375 373.753906 145.660156 376.207031 Z M 500.449219 406.339844 L 466.902344 411.355469 L 466.902344 407.234375 L 491.230469 398.488281 L 511.238281 379.644531 L 537.625 375.53125 C 539.980469 375.53125 547.238281 375.128906 554.007812 369.730469 C 562.738281 362.664062 563.621094 352.554688 563.71875 350.886719 L 567.152344 350.886719 C 567.640625 354.519531 568.132812 362.085938 564.796875 370.625 C 562.148438 377.496094 558.125 382 555.578125 384.453125 L 500.449219 406.339844 " fill-opacity="1" fill-rule="nonzero"/><path fill="#ffffff" d="M 233.449219 402.816406 C 235.117188 403.199219 237.570312 403.691406 240.511719 403.886719 C 244.4375 404.179688 248.949219 403.992188 249.046875 403.503906 C 249.046875 403.199219 247.28125 402.609375 238.648438 401.539062 C 240.511719 400.253906 241.394531 399.273438 241.199219 398.78125 C 240.90625 397.996094 238.355469 397.996094 233.449219 398.78125 Z M 136.734375 342.347656 C 137.910156 336.566406 138.304688 333.515625 137.617188 333.328125 C 137.324219 333.222656 136.832031 333.710938 136.144531 334.890625 C 136.144531 330.1875 135.851562 329.097656 135.460938 329 C 134.871094 328.914062 133.988281 331.855469 133.597656 333.820312 C 132.8125 337.34375 133.007812 340.289062 133.300781 342.347656 Z M 180.875 350.996094 C 180.875 353.832031 184.796875 355.707031 188.625 357.757812 C 190.292969 353.046875 187.546875 344.703125 187.546875 344.703125 C 184.308594 346.089844 180.875 348.34375 180.875 350.996094 Z M 467.589844 406.9375 C 462.785156 406.144531 460.136719 406.144531 459.839844 406.9375 C 459.644531 407.515625 460.527344 408.410156 462.390625 409.6875 C 453.859375 410.757812 451.992188 411.355469 451.992188 411.648438 C 451.992188 412.140625 456.605469 412.335938 460.527344 412.03125 C 463.46875 411.84375 465.921875 411.355469 467.589844 410.953125 Z M 567.738281 350.59375 C 568.035156 348.542969 568.132812 345.597656 567.445312 342.054688 C 567.050781 340.089844 566.171875 337.148438 565.582031 337.253906 C 565.285156 337.253906 564.894531 338.324219 564.894531 343.144531 C 564.207031 341.964844 563.71875 341.476562 563.421875 341.5625 C 562.835938 341.761719 563.128906 344.800781 564.304688 350.59375 Z M 281.417969 143.222656 C 283.671875 139.875 284.652344 138.015625 284.261719 137.71875 C 284.066406 137.523438 283.476562 137.820312 282.59375 138.511719 C 283.378906 134.777344 283.378906 132.8125 282.886719 132.617188 C 282.101562 132.324219 280.238281 135.070312 277.296875 140.769531 Z M 297.796875 125.453125 C 304.171875 123.390625 307.214844 121.722656 307.117188 120.644531 C 307.019531 119.953125 305.742188 119.5625 303.191406 119.269531 C 308.390625 116.519531 309.371094 115.539062 309.273438 115.148438 C 308.980469 114.554688 304.761719 115.246094 301.230469 117.210938 C 298.582031 118.679688 296.71875 120.546875 295.640625 121.917969 Z M 291.914062 191.804688 L 310.941406 200.726562 C 313.296875 199.359375 315.550781 197.976562 317.90625 196.503906 C 315.355469 193.960938 311.53125 190.332031 306.527344 186.296875 C 298.679688 180.113281 294.757812 176.972656 289.753906 175.894531 C 279.355469 173.734375 269.546875 181.292969 265.820312 184.53125 L 232.175781 203.472656 L 262.09375 233.515625 L 292.992188 256.175781 L 297.796875 250.394531 L 278.671875 225.261719 L 261.503906 197.78125 L 265.230469 203.777344 C 273.960938 199.851562 283.183594 195.730469 291.914062 191.804688 Z M 513.496094 352.851562 C 513.496094 352.851562 510.75 361.300781 512.417969 365.902344 C 516.242188 363.84375 520.167969 361.976562 520.167969 359.140625 C 520.167969 356.578125 516.734375 354.324219 513.496094 352.851562 Z M 230.902344 115.632812 C 229.625 117.597656 228.152344 118.871094 227.074219 119.753906 C 225.210938 119.457031 223.445312 120.441406 222.855469 122.011719 C 222.171875 123.875 223.152344 126.234375 225.308594 127.019531 C 225.308594 127.507812 225.503906 129.375 224.132812 131.039062 C 223.152344 132.21875 221.972656 132.707031 221.484375 132.90625 C 221.972656 134.671875 222.5625 136.4375 223.054688 138.207031 C 224.035156 138.503906 226.191406 139.085938 228.9375 138.503906 C 231.097656 138.011719 232.667969 137.027344 233.449219 136.34375 L 233.449219 130.253906 C 234.433594 129.667969 235.804688 128.585938 236.882812 126.820312 C 239.433594 122.699219 238.257812 117.890625 237.375 114.355469 C 236.882812 112.199219 235.804688 108.957031 233.351562 105.328125 C 233.550781 106.898438 233.648438 111.316406 230.902344 115.632812 Z M 525.070312 473.371094 L 525.953125 473.371094 L 525.167969 479.457031 Z M 525.070312 473.371094 " fill-opacity="1" fill-rule="nonzero"/><g clip-path="url(#id3)"><path fill="#0f0e0c" d="M 291.714844 259.03125 L 218.445312 259.03125 L 218.445312 264.8125 L 291.714844 264.8125 Z M 292.796875 265.902344 L 217.265625 265.902344 L 217.265625 257.84375 L 292.796875 257.84375 Z M 570.582031 393.089844 L 566.855469 367.867188 C 566.5625 368.847656 566.269531 369.828125 565.875 370.8125 C 563.816406 376.023438 560.578125 380.929688 556.558594 384.855469 C 557.144531 385.347656 557.636719 385.925781 558.125 386.621094 C 559.695312 388.78125 560.675781 391.617188 560.875 394.5625 Z M 560.089844 399.761719 C 556.460938 409.578125 541.058594 410.375 540.570312 418.117188 C 540.078125 424.691406 550.378906 427.246094 549.59375 433.527344 C 549.199219 436.46875 546.550781 439.324219 543.117188 441.378906 C 543.117188 441.476562 543.21875 441.476562 543.21875 441.582031 C 543.316406 443.144531 543.316406 444.722656 543.019531 446.195312 C 542.53125 449.523438 541.351562 452.761719 539.390625 455.707031 L 538.605469 472.785156 L 560.089844 472.785156 Z M 537.429688 479.859375 C 537.332031 479.753906 537.234375 479.566406 537.234375 479.457031 L 538.410156 455.609375 C 538.410156 455.519531 538.410156 455.410156 538.507812 455.324219 C 540.371094 452.46875 541.648438 449.433594 542.039062 446.195312 C 542.234375 444.8125 542.234375 443.4375 542.234375 442.074219 C 538.507812 444.035156 533.996094 444.910156 530.464844 443.929688 C 530.957031 445.402344 531.347656 447.472656 530.859375 450.015625 C 530.367188 452.46875 529.191406 454.234375 528.210938 455.324219 L 525.5625 472.585938 L 525.757812 479.371094 L 532.625 491.921875 L 559.207031 511.460938 L 564.601562 505.082031 Z M 516.535156 523.535156 L 525.757812 523.535156 L 524.480469 472.390625 L 527.128906 454.921875 C 527.128906 454.832031 527.230469 454.726562 527.230469 454.625 C 528.113281 453.644531 529.191406 451.976562 529.679688 449.71875 C 530.171875 447.265625 529.679688 445.214844 529.191406 443.929688 C 529.09375 443.832031 529.191406 443.632812 529.191406 443.546875 C 528.992188 443.4375 528.796875 443.339844 528.601562 443.25 C 523.597656 440.601562 525.855469 434.800781 520.363281 427.246094 C 518.300781 424.40625 515.949219 422.445312 513.59375 420.972656 L 504.277344 470.917969 Z M 468.179688 410.667969 L 501.136719 405.761719 C 501.332031 405.761719 501.527344 405.761719 501.628906 405.957031 C 507.511719 400.253906 519.96875 394.757812 519.183594 387.496094 C 518.792969 384.058594 515.652344 381.910156 512.515625 379.839844 C 512.515625 379.839844 512.515625 379.949219 512.417969 379.949219 L 492.40625 398.78125 C 492.308594 398.890625 492.308594 398.890625 492.210938 398.890625 L 468.277344 407.515625 L 468.277344 410.667969 Z M 467 410.863281 L 467 407.617188 C 461.117188 406.632812 460.429688 407.320312 460.332031 407.320312 C 460.332031 407.320312 460.429688 407.917969 462.6875 409.480469 C 462.882812 409.578125 462.980469 409.882812 462.882812 410.070312 C 462.785156 410.265625 462.6875 410.460938 462.390625 410.460938 C 457.78125 411.050781 455.230469 411.542969 453.859375 411.738281 C 455.425781 411.84375 457.878906 411.84375 460.429688 411.738281 C 462.6875 411.738281 464.941406 411.355469 467 410.863281 Z M 513.886719 353.636719 C 513.300781 355.5 511.828125 361.390625 512.808594 365.117188 L 513.105469 365.03125 C 516.535156 363.261719 519.773438 361.488281 519.773438 359.230469 C 519.675781 357.464844 517.617188 355.5 513.886719 353.636719 Z M 333.109375 427.84375 L 451.894531 410.460938 C 452.191406 410.460938 452.484375 410.667969 452.484375 410.953125 L 452.484375 411.160156 C 453.5625 410.757812 455.917969 410.375 461.019531 409.6875 C 459.644531 408.597656 459.15625 407.8125 459.449219 407.027344 C 459.742188 406.144531 461.019531 405.554688 467.589844 406.632812 L 491.621094 397.910156 L 511.4375 379.261719 C 508.296875 377.296875 505.550781 375.335938 505.746094 372.585938 C 505.941406 369.9375 508.886719 367.972656 512.121094 366.296875 C 512.023438 366.207031 511.925781 366.207031 511.925781 366.011719 C 510.257812 361.191406 512.808594 353.046875 513.003906 352.554688 C 512.808594 352.46875 512.613281 352.359375 512.417969 352.269531 C 512.90625 350.015625 513.496094 347.648438 513.988281 345.402344 C 527.621094 343.929688 533.40625 346.960938 536.054688 350.398438 C 541.351562 357.375 534.976562 367.484375 538.019531 374.84375 L 538.214844 374.84375 C 541.648438 374.84375 548.21875 374.058594 554.203125 369.152344 C 562.246094 362.664062 563.523438 353.539062 563.71875 350.691406 C 562.148438 343.230469 562.34375 341.671875 562.933594 341.179688 L 555.183594 288.269531 L 529.878906 258.140625 L 327.8125 287.691406 L 318.394531 323.210938 C 318.296875 323.515625 318.101562 323.601562 317.90625 323.601562 L 317.808594 323.601562 Z M 317.613281 322.230469 L 326.636719 288.074219 L 312.902344 290.039062 Z M 328.207031 286.796875 L 529.191406 257.355469 L 528.109375 256.089844 L 452.09375 201.8125 L 427.078125 201.8125 L 328.792969 284.550781 Z M 428.355469 200.726562 L 450.425781 200.726562 L 441.300781 194.257812 C 439.929688 194.148438 438.753906 193.660156 437.574219 192.980469 Z M 550.476562 255.390625 L 531.347656 258.246094 L 555.085938 286.515625 Z M 453.957031 201.8125 L 528.796875 255.195312 L 528.894531 255.304688 L 530.464844 257.160156 L 550.867188 254.214844 C 550.964844 254.214844 551.164062 254.214844 551.261719 254.320312 C 551.359375 254.410156 551.457031 254.507812 551.457031 254.703125 L 556.359375 288.074219 L 559.207031 291.507812 C 559.402344 291.707031 559.402344 292.109375 559.109375 292.292969 C 558.910156 292.492188 558.519531 292.492188 558.324219 292.195312 L 556.65625 290.144531 L 560.1875 314.191406 L 560.1875 201.8125 Z M 563.621094 342.546875 C 563.621094 343.230469 563.71875 345.195312 564.699219 350.199219 L 567.152344 350.199219 C 567.445312 347.558594 567.347656 344.910156 566.757812 342.347656 C 566.367188 340.691406 565.875 339.21875 565.582031 338.421875 C 565.484375 339.023438 565.285156 340.386719 565.386719 343.332031 C 565.386719 343.632812 565.1875 343.820312 564.992188 343.820312 C 564.796875 343.929688 564.503906 343.820312 564.402344 343.527344 C 564.109375 343.144531 563.816406 342.742188 563.621094 342.546875 Z M 555.773438 384.058594 C 559.695312 380.242188 562.835938 375.53125 564.796875 370.429688 C 565.484375 368.554688 566.070312 366.785156 566.464844 365.03125 L 566.464844 364.921875 C 567.738281 359.632812 567.640625 354.8125 567.25 351.378906 L 564.894531 351.378906 C 564.601562 354.726562 563.03125 363.753906 554.988281 370.132812 C 548.90625 375.039062 542.234375 375.914062 538.605469 376.023438 C 538.902344 376.601562 539.292969 377.191406 539.785156 377.679688 C 544.199219 382.589844 550.769531 380.527344 555.773438 384.058594 C 555.675781 384.058594 555.773438 384.058594 555.773438 384.058594 Z M 392.453125 466.40625 L 237.667969 466.40625 L 237.667969 481.910156 L 367.246094 481.910156 C 367.539062 481.910156 367.832031 482.207031 367.832031 482.511719 L 367.832031 507.625 L 392.453125 507.625 Z M 366.753906 483.089844 L 211.96875 483.089844 L 211.96875 524.308594 L 366.753906 524.308594 Z M 196.765625 462.683594 L 187.445312 412.71875 C 185.09375 414.191406 182.738281 416.152344 180.679688 419.011719 C 175.1875 426.566406 177.441406 432.257812 172.441406 434.996094 C 172.242188 435.097656 172.046875 435.203125 171.851562 435.292969 C 171.851562 435.398438 171.949219 435.585938 171.851562 435.695312 C 171.359375 436.960938 170.871094 439.023438 171.359375 441.476562 C 171.851562 443.832031 172.929688 445.402344 173.8125 446.382812 C 173.910156 446.492188 173.910156 446.578125 173.910156 446.6875 L 176.558594 464.15625 L 176.363281 471.3125 L 176.363281 471.410156 L 175.285156 515.28125 L 184.503906 515.28125 Z M 175.285156 471.027344 L 175.480469 464.15625 L 172.832031 446.980469 C 171.851562 445.890625 170.675781 444.125 170.183594 441.671875 C 169.691406 439.21875 170.085938 437.058594 170.574219 435.585938 C 167.042969 436.566406 162.53125 435.695312 158.804688 433.730469 C 158.707031 435.097656 158.804688 436.46875 159 437.855469 C 159.492188 441.09375 160.667969 444.125 162.53125 446.980469 C 162.628906 447.070312 162.628906 447.175781 162.628906 447.265625 L 163.808594 471.117188 C 163.808594 471.3125 163.710938 471.410156 163.613281 471.519531 L 136.34375 496.632812 L 141.738281 503.011719 L 168.320312 483.492188 Z M 160.765625 472.785156 L 162.730469 470.917969 L 161.648438 447.472656 C 159.6875 444.527344 158.511719 441.378906 158.019531 437.941406 C 157.824219 436.46875 157.726562 434.910156 157.824219 433.328125 C 157.824219 433.242188 157.824219 433.132812 157.921875 433.132812 C 154.488281 431.070312 151.839844 428.226562 151.449219 425.28125 C 150.664062 419.011719 160.964844 416.449219 160.472656 409.882812 C 159.882812 401.835938 143.308594 401.234375 140.558594 390.144531 C 139.578125 386.023438 140.660156 381.421875 142.914062 378.28125 C 143.40625 377.582031 143.992188 377.003906 144.484375 376.511719 C 141.933594 373.953125 139.675781 371.007812 137.8125 367.867188 L 137.8125 472.695312 L 160.765625 472.695312 Z M 136.246094 362.175781 C 138.207031 367.277344 141.34375 371.988281 145.269531 375.824219 L 145.269531 375.914062 C 150.269531 372.390625 156.84375 374.355469 161.160156 369.535156 C 161.648438 369.042969 162.042969 368.464844 162.335938 367.867188 C 158.707031 367.769531 152.035156 366.886719 145.957031 361.976562 C 138.011719 355.597656 136.441406 346.578125 136.046875 343.230469 L 133.695312 343.230469 C 133.300781 347.746094 133.300781 354.617188 136.246094 362.175781 Z M 133.792969 342.054688 L 136.246094 342.054688 C 137.324219 336.949219 137.421875 335.097656 137.324219 334.398438 C 137.128906 334.605469 136.929688 334.890625 136.636719 335.480469 C 136.539062 335.675781 136.246094 335.78125 136.046875 335.78125 C 135.851562 335.675781 135.65625 335.480469 135.65625 335.292969 C 135.65625 332.4375 135.558594 331.0625 135.460938 330.386719 C 135.066406 331.171875 134.578125 332.640625 134.28125 334.3125 C 133.695312 336.765625 133.496094 339.40625 133.792969 342.054688 Z M 136.734375 333.132812 L 136.734375 333.417969 L 136.832031 333.328125 C 136.734375 333.328125 136.734375 333.222656 136.734375 333.132812 Z M 187.152344 345.402344 C 183.328125 347.257812 181.367188 349.21875 181.367188 350.996094 C 181.367188 353.253906 184.601562 355.007812 188.035156 356.777344 L 188.328125 356.882812 C 189.210938 353.144531 187.742188 347.257812 187.152344 345.402344 Z M 188.722656 371.695312 C 185.582031 373.753906 182.445312 375.914062 182.050781 379.347656 C 181.265625 386.515625 193.726562 392.019531 199.609375 397.800781 C 199.707031 397.703125 199.90625 397.613281 200.101562 397.613281 L 233.058594 402.523438 L 233.058594 399.46875 L 209.125 390.832031 C 209.027344 390.832031 209.027344 390.746094 208.929688 390.746094 L 188.917969 371.898438 C 188.722656 371.792969 188.722656 371.695312 188.722656 371.695312 Z M 234.039062 399.46875 L 234.039062 402.707031 C 236.199219 403.199219 238.355469 403.503906 240.613281 403.691406 C 243.160156 403.886719 245.613281 403.886719 247.183594 403.691406 C 245.808594 403.394531 243.359375 403.011719 238.648438 402.414062 C 238.453125 402.414062 238.257812 402.21875 238.160156 402.03125 C 238.0625 401.835938 238.160156 401.539062 238.355469 401.433594 C 240.613281 399.871094 240.710938 399.273438 240.710938 399.273438 C 240.613281 399.085938 239.925781 398.488281 234.039062 399.46875 Z M 192.546875 434.222656 L 195.195312 448.246094 L 223.640625 448.246094 C 227.46875 448.246094 230.703125 445.105469 230.703125 441.179688 C 230.703125 437.253906 227.566406 434.113281 223.640625 434.113281 L 192.546875 434.113281 Z M 311.332031 200.726562 Z M 272.292969 200.726562 L 310.648438 200.726562 L 291.914062 191.890625 Z M 442.578125 52.722656 C 442.578125 46.441406 437.476562 41.339844 431.199219 41.339844 C 428.941406 41.339844 426.6875 42.027344 424.824219 43.300781 C 421.683594 45.460938 419.820312 48.894531 419.820312 52.722656 C 419.820312 59.003906 424.921875 64.109375 431.199219 64.109375 C 437.476562 64.109375 442.578125 59.003906 442.578125 52.722656 Z M 571.761719 393.492188 C 571.761719 393.777344 571.566406 394.070312 571.269531 394.070312 L 561.265625 395.542969 L 561.265625 473.273438 C 561.265625 473.570312 560.972656 473.863281 560.675781 473.863281 L 538.605469 473.863281 L 538.3125 479.164062 L 565.777344 504.484375 C 565.972656 504.679688 565.972656 505.082031 565.777344 505.269531 L 565.679688 505.378906 L 569.308594 509.6875 C 561.953125 521.464844 557.636719 527.058594 556.261719 526.480469 C 555.183594 525.988281 556.066406 521.367188 559.007812 512.628906 C 558.910156 512.628906 558.910156 512.628906 558.8125 512.53125 L 531.742188 492.617188 C 531.640625 492.617188 531.640625 492.511719 531.542969 492.414062 L 525.660156 481.617188 L 526.738281 524.023438 C 526.738281 524.222656 526.640625 524.308594 526.542969 524.40625 C 526.445312 524.515625 526.246094 524.605469 526.148438 524.605469 L 526.050781 524.605469 L 524.972656 529.914062 C 508.789062 531.179688 500.546875 531.179688 500.351562 529.914062 C 500.15625 528.824219 505.160156 526.96875 515.359375 524.222656 L 503.882812 473.863281 L 393.628906 473.863281 L 393.628906 508.117188 C 393.628906 508.410156 393.335938 508.703125 393.042969 508.703125 L 367.832031 508.703125 L 367.832031 524.800781 C 367.832031 525.09375 367.539062 525.390625 367.246094 525.390625 L 211.382812 525.390625 C 211.085938 525.390625 210.792969 525.09375 210.792969 524.800781 L 210.792969 482.511719 C 210.792969 482.207031 211.085938 481.910156 211.382812 481.910156 L 236.589844 481.910156 L 236.589844 473.863281 L 195.292969 473.863281 L 185.582031 515.96875 C 195.6875 518.714844 200.6875 520.589844 200.589844 521.660156 C 200.394531 522.9375 192.15625 522.9375 175.96875 521.660156 L 174.890625 516.371094 L 174.792969 516.371094 C 174.597656 516.371094 174.5 516.261719 174.402344 516.171875 C 174.304688 516.066406 174.207031 515.878906 174.207031 515.769531 L 175.285156 473.371094 L 169.398438 484.167969 C 169.398438 484.277344 169.300781 484.277344 169.203125 484.363281 L 142.128906 504.289062 C 142.128906 504.289062 142.03125 504.289062 141.933594 504.394531 C 144.875 513.121094 145.757812 517.734375 144.679688 518.226562 C 143.40625 518.910156 138.992188 513.316406 131.632812 501.453125 L 135.261719 497.125 L 135.164062 497.035156 C 134.96875 496.828125 134.96875 496.4375 135.164062 496.25 L 159.394531 473.863281 L 137.128906 473.863281 C 136.832031 473.863281 136.539062 473.570312 136.539062 473.273438 L 136.539062 367.679688 C 136.539062 367.375 136.832031 367.082031 137.128906 367.082031 L 137.226562 367.082031 C 136.441406 365.609375 135.65625 364.046875 135.066406 362.46875 C 131.929688 354.519531 132.027344 347.253906 132.613281 342.542969 C 132.222656 339.601562 132.320312 336.765625 133.007812 333.90625 C 134.183594 328.511719 135.164062 328.609375 135.460938 328.714844 C 136.046875 328.804688 136.441406 329.207031 136.539062 332.925781 L 136.539062 201.214844 C 136.539062 200.921875 136.832031 200.636719 137.128906 200.636719 L 228.546875 200.636719 C 228.839844 200.636719 229.136719 200.921875 229.136719 201.214844 C 229.136719 201.511719 228.839844 201.8125 228.546875 201.8125 L 137.714844 201.8125 L 137.714844 333.023438 C 138.5 333.328125 138.894531 334.203125 137.128906 342.652344 C 137.324219 345.402344 138.597656 354.617188 146.640625 361.105469 C 152.625 365.902344 159.199219 366.699219 162.628906 366.785156 L 162.828125 366.785156 C 165.867188 359.425781 159.589844 349.328125 164.789062 342.347656 C 167.4375 338.914062 173.222656 335.78125 186.859375 337.34375 C 187.347656 339.601562 187.9375 341.964844 188.429688 344.214844 C 188.230469 344.3125 188.035156 344.417969 187.839844 344.507812 C 188.035156 345 190.585938 353.144531 188.917969 357.953125 C 188.917969 358.050781 188.820312 358.160156 188.722656 358.25 C 191.859375 359.917969 194.804688 361.878906 195.097656 364.539062 C 195.292969 367.277344 192.546875 369.152344 189.410156 371.203125 L 209.222656 389.851562 L 233.253906 398.59375 C 239.925781 397.507812 241.101562 398.105469 241.394531 398.976562 C 241.691406 399.664062 241.199219 400.449219 239.828125 401.628906 C 249.441406 402.902344 249.339844 403.394531 249.339844 403.992188 C 249.339844 404.574219 248.753906 404.867188 246.007812 404.976562 L 243.945312 404.976562 C 242.671875 404.976562 241.394531 404.976562 240.21875 404.867188 C 237.863281 404.671875 235.414062 404.375 233.058594 403.796875 L 200.199219 398.890625 C 201.671875 400.558594 202.453125 402.21875 202.160156 403.886719 C 201.472656 408.214844 194.804688 408.410156 188.132812 412.226562 C 188.132812 412.335938 188.230469 412.335938 188.230469 412.425781 L 192.15625 433.242188 L 223.445312 433.242188 C 227.957031 433.242188 231.585938 436.871094 231.585938 441.378906 C 231.585938 445.890625 227.957031 449.523438 223.445312 449.523438 L 195.195312 449.523438 L 197.648438 462.683594 L 197.648438 462.882812 L 195.292969 472.882812 L 236.296875 472.882812 L 236.296875 466.011719 C 236.296875 465.71875 236.589844 465.421875 236.882812 465.421875 L 393.042969 465.421875 C 393.335938 465.421875 393.628906 465.71875 393.628906 466.011719 L 393.628906 472.882812 L 503.6875 472.882812 L 503.292969 471.117188 L 503.292969 470.917969 L 512.710938 420.679688 C 512.710938 420.570312 512.710938 420.570312 512.808594 420.480469 C 506.140625 416.644531 499.46875 416.449219 498.78125 412.140625 C 498.488281 410.375 499.273438 408.703125 500.746094 407.125 L 467.882812 412.03125 C 465.53125 412.628906 463.175781 412.914062 460.722656 413.121094 C 459.742188 413.210938 458.273438 413.210938 456.898438 413.210938 C 454.640625 413.210938 452.386719 413.121094 451.894531 412.628906 C 451.796875 412.523438 451.699219 412.335938 451.699219 412.140625 C 451.699219 412.03125 451.699219 411.84375 451.796875 411.738281 L 332.914062 429.109375 L 332.816406 429.109375 C 332.71875 429.109375 332.621094 429.109375 332.519531 429.019531 C 332.421875 428.914062 332.324219 428.824219 332.324219 428.617188 L 312.609375 295.238281 L 172.636719 295.238281 C 172.339844 295.238281 172.046875 294.945312 172.046875 294.648438 C 172.046875 294.367188 172.339844 294.070312 172.636719 294.070312 L 312.414062 294.070312 L 311.726562 289.65625 C 311.726562 289.351562 311.921875 289.054688 312.214844 289.054688 L 327.027344 286.898438 L 327.8125 284.058594 C 327.8125 283.953125 327.910156 283.855469 328.007812 283.765625 L 425.410156 201.8125 L 335.167969 201.8125 C 335.070312 201.8125 334.972656 201.8125 334.972656 201.707031 C 333.699219 202.796875 326.441406 203.179688 313.296875 202.882812 L 312.214844 201.617188 C 312.117188 201.707031 312.019531 201.707031 311.921875 201.707031 L 269.941406 201.707031 L 266.210938 203.375 L 279.257812 224.386719 L 298.386719 249.503906 L 298.386719 249.601562 C 305.9375 245.488281 310.15625 243.910156 310.84375 244.890625 C 311.726562 246.066406 307.410156 251.269531 297.894531 260.210938 L 293.480469 255.980469 C 293.382812 256.089844 293.1875 256.175781 293.089844 256.175781 C 292.992188 256.175781 292.894531 256.175781 292.796875 256.089844 L 261.898438 233.308594 L 231.882812 203.285156 C 231.683594 203.089844 231.683594 202.6875 231.882812 202.492188 C 232.078125 202.304688 232.46875 202.304688 232.667969 202.492188 L 262.582031 232.535156 L 292.992188 254.902344 L 297.210938 249.90625 L 278.277344 225.066406 L 261.113281 197.484375 C 260.917969 197.203125 261.015625 196.90625 261.308594 196.710938 C 261.601562 196.503906 261.898438 196.601562 262.09375 196.90625 L 265.625 202.492188 C 265.625 202.492188 265.722656 202.394531 265.820312 202.394531 L 269.644531 200.726562 L 291.914062 190.714844 C 292.109375 190.617188 292.207031 190.617188 292.402344 190.714844 L 311.234375 199.546875 L 317.316406 195.925781 C 313.882812 192.492188 310.253906 189.242188 306.527344 186.296875 C 298.777344 180.113281 294.855469 177.082031 290.046875 175.992188 C 280.4375 173.929688 271.214844 180.515625 266.605469 184.53125 C 266.410156 184.726562 266.015625 184.726562 265.820312 184.441406 C 265.625 184.238281 265.625 183.84375 265.917969 183.65625 C 270.726562 179.425781 280.335938 172.753906 290.34375 174.824219 C 295.445312 175.894531 299.367188 179.042969 307.3125 185.316406 C 311.332031 188.457031 315.160156 191.890625 318.691406 195.523438 C 318.789062 195.621094 318.886719 195.816406 318.886719 196.015625 C 328.304688 197.976562 333.699219 199.546875 335.167969 200.726562 C 335.269531 200.636719 335.367188 200.527344 335.5625 200.527344 L 427.175781 200.527344 L 437.28125 192 C 436.789062 191.597656 436.300781 191.105469 435.90625 190.617188 C 434.238281 188.457031 433.75 185.511719 434.632812 182.96875 C 435.320312 181.007812 436.691406 179.625 437.96875 178.554688 C 438.554688 177.957031 439.144531 177.464844 439.636719 176.875 C 440.910156 175.207031 441.695312 173.046875 441.890625 170.703125 L 441.890625 170.59375 C 437.574219 169.808594 434.339844 166.078125 434.339844 161.574219 C 434.339844 156.667969 438.261719 152.632812 443.066406 152.4375 L 443.066406 57.832031 C 441.105469 62.148438 436.789062 65.191406 431.691406 65.191406 C 424.824219 65.191406 419.230469 59.59375 419.230469 52.726562 C 419.230469 50.269531 419.917969 48.015625 421.195312 46.054688 L 309.175781 116.226562 C 308.488281 116.816406 307.214844 117.601562 304.859375 118.875 C 306.625 119.269531 307.410156 119.757812 307.605469 120.546875 C 307.800781 121.625 306.722656 123 298.09375 125.945312 L 284.949219 137.917969 C 284.949219 138.597656 284.261719 139.984375 281.90625 143.507812 C 281.808594 143.710938 281.613281 143.710938 281.417969 143.710938 C 281.320312 143.710938 281.21875 143.710938 281.121094 143.605469 C 280.828125 143.417969 280.828125 143.113281 281.023438 142.820312 C 282.691406 140.367188 283.378906 139.089844 283.671875 138.402344 C 283.476562 138.511719 283.28125 138.699219 282.984375 138.894531 C 282.789062 139 282.59375 139.089844 282.398438 138.894531 C 282.203125 138.804688 282.101562 138.511719 282.101562 138.3125 C 282.789062 134.675781 282.789062 133.5 282.691406 133.109375 C 282.300781 133.402344 281.023438 134.777344 277.789062 140.855469 C 277.6875 141.152344 277.296875 141.257812 277.003906 141.054688 C 276.707031 140.964844 276.609375 140.5625 276.804688 140.277344 C 281.21875 131.929688 282.300781 131.535156 283.085938 131.832031 C 283.769531 132.125 284.164062 133.109375 283.378906 137.035156 C 283.671875 136.933594 283.867188 136.839844 284.164062 136.839844 L 297.40625 124.765625 C 297.40625 124.765625 297.503906 124.765625 297.503906 124.667969 C 297.503906 124.667969 297.601562 124.667969 297.601562 124.570312 C 306.429688 121.625 306.527344 120.445312 306.527344 120.347656 C 306.527344 120.347656 306.332031 119.757812 303.09375 119.367188 C 302.898438 119.367188 302.703125 119.171875 302.605469 118.875 C 302.605469 118.679688 302.703125 118.386719 302.898438 118.285156 C 303.386719 117.992188 303.878906 117.796875 304.371094 117.5 L 308.292969 115.046875 C 307.019531 115.148438 304.171875 115.832031 301.425781 117.304688 C 299.367188 118.480469 297.601562 119.953125 296.03125 121.917969 C 295.835938 122.117188 295.445312 122.210938 295.246094 122.015625 C 295.050781 121.820312 294.953125 121.425781 295.148438 121.230469 C 296.816406 119.171875 298.679688 117.601562 300.9375 116.421875 C 304.171875 114.65625 308.097656 113.773438 309.273438 114.164062 C 309.371094 114.265625 309.46875 114.265625 309.566406 114.359375 L 422.078125 43.890625 C 422.175781 43.796875 422.371094 43.796875 422.566406 43.796875 C 423.058594 43.304688 423.644531 42.816406 424.234375 42.417969 C 426.292969 41.046875 428.746094 40.261719 431.199219 40.261719 C 436.789062 40.261719 441.597656 43.992188 443.066406 49.09375 C 443.363281 49.09375 443.65625 49.390625 443.65625 49.683594 L 443.65625 152.628906 C 448.363281 153.03125 452.191406 156.957031 452.191406 161.757812 C 452.191406 166.28125 448.953125 170 444.636719 170.785156 L 444.636719 171.082031 C 444.441406 174.132812 443.363281 177.078125 441.695312 179.128906 C 441.105469 179.914062 440.320312 180.601562 439.632812 181.199219 C 438.554688 182.179688 437.574219 183.054688 437.183594 184.332031 C 436.691406 185.800781 436.984375 187.578125 437.96875 188.855469 C 439.242188 190.523438 441.300781 191.308594 443.363281 190.816406 C 445.519531 190.328125 447.089844 188.648438 447.578125 186.488281 C 447.777344 185.617188 448.660156 185.015625 449.542969 185.214844 C 450.425781 185.417969 451.011719 186.292969 450.816406 187.175781 C 450.03125 190.613281 447.480469 193.273438 444.046875 193.957031 C 443.753906 194.046875 443.460938 194.046875 443.164062 194.144531 L 452.289062 200.632812 L 560.578125 200.632812 C 560.871094 200.632812 561.167969 200.917969 561.167969 201.210938 L 561.167969 317.425781 C 561.167969 317.710938 560.972656 318.003906 560.578125 318.003906 L 564.011719 341.558594 C 564.109375 341.667969 564.109375 341.667969 564.207031 341.753906 C 564.304688 337.546875 564.699219 337.144531 565.386719 337.054688 C 566.269531 336.945312 567.050781 338.722656 567.835938 342.246094 C 568.425781 345.101562 568.523438 347.9375 568.230469 350.882812 C 568.71875 354.515625 568.816406 359.519531 567.542969 365.222656 Z M 199.511719 227.625 C 199.511719 226.046875 198.238281 224.683594 196.570312 224.683594 C 195 224.683594 193.625 225.949219 193.625 227.625 C 193.625 229.1875 194.902344 230.570312 196.570312 230.570312 C 198.238281 230.570312 199.511719 229.296875 199.511719 227.625 Z M 200.589844 227.625 C 200.589844 228.402344 200.394531 229.097656 200.003906 229.679688 L 203.335938 232.425781 C 203.535156 232.621094 203.632812 233.023438 203.4375 233.222656 C 203.335938 233.308594 203.140625 233.40625 203.042969 233.40625 C 202.945312 233.40625 202.75 233.40625 202.652344 233.308594 L 199.316406 230.570312 C 198.628906 231.257812 197.648438 231.640625 196.570312 231.640625 C 194.3125 231.640625 192.546875 229.875 192.546875 227.625 C 192.546875 225.371094 194.3125 223.59375 196.570312 223.59375 C 198.824219 223.59375 200.589844 225.457031 200.589844 227.625 Z M 218.34375 275.609375 L 268.761719 275.609375 L 268.761719 269.828125 L 218.34375 269.828125 Z M 217.265625 268.738281 L 269.941406 268.738281 L 269.941406 276.789062 L 217.265625 276.789062 Z M 236.882812 114.355469 C 236.296875 111.902344 235.316406 109.449219 234.039062 107.191406 C 233.941406 109.550781 233.351562 112.789062 231.390625 115.828125 C 230.3125 117.496094 229.035156 118.871094 227.371094 120.050781 C 227.269531 120.148438 227.074219 120.148438 226.976562 120.148438 C 225.40625 119.855469 223.839844 120.738281 223.347656 122.113281 C 223.054688 122.894531 223.054688 123.78125 223.445312 124.566406 C 223.839844 125.449219 224.621094 126.132812 225.503906 126.429688 C 225.703125 126.527344 225.898438 126.722656 225.898438 126.921875 C 225.996094 127.707031 225.996094 129.570312 224.621094 131.335938 C 223.839844 132.320312 222.957031 132.910156 222.171875 133.199219 L 223.542969 137.714844 C 224.820312 138.105469 226.683594 138.398438 228.839844 137.910156 C 230.3125 137.617188 231.683594 136.929688 232.960938 136.046875 L 232.960938 130.160156 C 232.960938 129.964844 233.058594 129.765625 233.253906 129.667969 C 234.628906 128.785156 235.707031 127.707031 236.492188 126.429688 C 238.847656 122.503906 237.667969 117.792969 236.882812 114.355469 Z M 209.320312 121.621094 C 208.4375 113.769531 214.324219 108.566406 214.914062 108.078125 C 215.597656 102.578125 219.816406 98.457031 224.917969 97.96875 C 229.136719 97.578125 233.253906 99.832031 235.414062 103.757812 C 235.804688 105.820312 236.097656 107.78125 236.492188 109.84375 C 237.082031 111.316406 237.570312 112.691406 237.964844 114.261719 C 238.847656 117.890625 240.023438 122.796875 237.375 127.214844 C 236.492188 128.589844 235.414062 129.765625 234.039062 130.648438 L 234.039062 136.441406 C 234.039062 136.636719 233.941406 136.734375 233.84375 136.835938 C 232.46875 137.910156 230.800781 138.691406 229.136719 139.085938 C 228.253906 139.292969 227.371094 139.378906 226.585938 139.378906 C 225.113281 139.378906 223.839844 139.085938 222.957031 138.800781 C 222.757812 138.691406 222.660156 138.59375 222.5625 138.398438 L 221.582031 135.066406 C 214.914062 133.300781 210.105469 127.902344 209.320312 121.621094 Z M 290.34375 434.214844 L 246.890625 434.214844 C 243.0625 434.214844 239.828125 437.355469 239.828125 441.28125 C 239.828125 445.207031 242.964844 448.335938 246.890625 448.335938 L 290.34375 448.335938 C 294.167969 448.335938 297.40625 445.207031 297.40625 441.28125 C 297.40625 437.355469 294.265625 434.214844 290.34375 434.214844 Z M 246.890625 433.125 L 290.34375 433.125 C 294.855469 433.125 298.484375 436.757812 298.484375 441.28125 C 298.484375 445.785156 294.855469 449.425781 290.34375 449.425781 L 246.890625 449.425781 C 242.378906 449.425781 238.746094 445.785156 238.746094 441.28125 C 238.746094 436.757812 242.378906 433.125 246.890625 433.125 Z M 349 508.109375 L 255.71875 508.109375 L 255.71875 510.070312 L 349.097656 510.070312 L 349.097656 508.109375 Z M 338.40625 502.425781 L 255.71875 502.425781 L 255.71875 505.164062 L 338.40625 505.164062 Z M 349 497.3125 L 255.71875 497.3125 L 255.71875 499.675781 L 349 499.675781 Z M 233.351562 504.386719 L 223.738281 515.273438 C 224.523438 515.675781 225.308594 515.871094 226.191406 515.871094 L 240.023438 515.871094 C 241.199219 515.871094 242.179688 515.46875 243.0625 514.890625 Z M 222.660156 492.699219 C 221.582031 493.679688 220.796875 495.152344 220.796875 496.734375 L 220.796875 510.5625 C 220.796875 512.328125 221.679688 513.910156 223.054688 514.890625 L 232.863281 503.789062 Z M 243.652344 514.398438 C 244.730469 513.417969 245.320312 512.035156 245.320312 510.472656 L 245.320312 496.625 C 245.320312 495.066406 244.632812 493.59375 243.554688 492.609375 L 233.84375 503.601562 Z M 223.25 492.207031 C 224.132812 491.71875 225.113281 491.335938 226.09375 491.335938 L 239.925781 491.335938 C 241.003906 491.335938 241.984375 491.628906 242.867188 492.207031 L 233.253906 503.113281 L 223.25 492.207031 " fill-opacity="1" fill-rule="nonzero"/></g><path fill="#3785bb" d="M 228.9375 138.511719 C 226.289062 139.089844 224.132812 138.597656 223.054688 138.210938 C 220.210938 142.523438 217.070312 148.707031 215.695312 156.558594 C 211.382812 180.605469 227.171875 199.546875 229.917969 202.882812 C 233.449219 203.179688 241.199219 203.375 249.539062 199.253906 C 260.035156 194.148438 265.035156 185.707031 266.703125 182.675781 L 249.929688 162.359375 C 252.285156 163.136719 258.5625 164.902344 265.625 162.359375 C 278.179688 157.835938 281.320312 144.09375 281.515625 143.222656 L 277.296875 140.855469 C 276.121094 142.4375 272.292969 147.433594 265.328125 149.199219 C 261.210938 150.289062 257.777344 149.796875 255.71875 149.394531 C 260.71875 145.871094 266.210938 142.238281 272.292969 138.597656 C 281.320312 133.304688 289.851562 128.988281 297.796875 125.453125 L 295.640625 122.015625 L 233.449219 136.347656 C 232.566406 136.933594 231.097656 138.015625 228.9375 138.511719 Z M 255.324219 323.601562 L 244.828125 335.480469 C 245.613281 335.871094 246.496094 336.164062 247.476562 336.164062 L 262.484375 336.164062 C 263.761719 336.164062 264.839844 335.78125 265.820312 335.097656 Z M 243.652344 310.941406 C 242.378906 312.03125 241.59375 313.59375 241.59375 315.359375 L 241.59375 330.386719 C 241.59375 332.347656 242.574219 334.007812 244.042969 335.097656 L 254.636719 323.023438 Z M 266.507812 334.605469 C 267.683594 333.515625 268.371094 332.042969 268.371094 330.386719 L 268.371094 315.359375 C 268.371094 313.59375 267.585938 312.121094 266.410156 311.050781 L 255.914062 323.023438 Z M 255.324219 322.335938 L 265.820312 310.453125 C 264.9375 309.863281 263.761719 309.46875 262.582031 309.46875 L 247.574219 309.46875 C 246.398438 309.46875 245.320312 309.863281 244.4375 310.453125 Z M 219.425781 323.808594 L 209.027344 335.675781 C 209.8125 336.078125 210.695312 336.363281 211.675781 336.363281 L 226.683594 336.363281 C 227.957031 336.363281 229.035156 335.96875 230.019531 335.292969 Z M 207.851562 311.136719 C 206.574219 312.226562 205.789062 313.789062 205.789062 315.554688 L 205.789062 330.570312 C 205.789062 332.535156 206.769531 334.203125 208.242188 335.292969 L 218.835938 323.210938 Z M 230.703125 334.800781 C 231.882812 333.710938 232.566406 332.238281 232.566406 330.570312 L 232.566406 315.554688 C 232.566406 313.789062 231.785156 312.316406 230.605469 311.246094 L 220.109375 323.210938 Z M 219.425781 322.53125 L 229.917969 310.648438 C 229.035156 310.070312 227.859375 309.667969 226.683594 309.667969 L 211.675781 309.667969 C 210.5 309.667969 209.417969 310.070312 208.535156 310.648438 Z M 183.523438 323.601562 L 173.027344 335.480469 C 173.8125 335.871094 174.695312 336.164062 175.675781 336.164062 L 190.683594 336.164062 C 191.960938 336.164062 193.039062 335.78125 194.019531 335.097656 Z M 171.949219 310.941406 C 170.675781 312.03125 169.890625 313.59375 169.890625 315.359375 L 169.890625 330.386719 C 169.890625 332.347656 170.871094 334.007812 172.339844 335.097656 L 182.933594 323.023438 Z M 194.804688 334.695312 C 195.980469 333.625 196.667969 332.152344 196.667969 330.472656 L 196.667969 315.464844 C 196.667969 313.699219 195.882812 312.226562 194.707031 311.136719 L 184.113281 323.023438 Z M 183.523438 322.425781 L 194.019531 310.558594 C 193.136719 309.960938 191.960938 309.578125 190.78125 309.578125 L 175.773438 309.578125 C 174.597656 309.578125 173.519531 309.960938 172.636719 310.558594 Z M 189.210938 251.5625 C 179.992188 251.5625 172.636719 259.03125 172.636719 268.152344 C 172.636719 277.277344 180.089844 284.746094 189.210938 284.746094 C 198.335938 284.746094 205.789062 277.277344 205.789062 268.152344 C 205.789062 259.03125 198.433594 251.5625 189.210938 251.5625 Z M 445.421875 313.996094 C 445.421875 324.683594 436.789062 333.328125 426.097656 333.328125 C 415.40625 333.328125 406.773438 324.683594 406.773438 313.996094 C 406.773438 303.285156 415.40625 294.648438 426.097656 294.648438 C 436.789062 294.648438 445.421875 303.285156 445.421875 313.996094 " fill-opacity="1" fill-rule="nonzero"/></svg>